<svg version="1.1" id="Layer_1" xmlns="http://www.w3.org/2000/svg" xmlns:xlink="http://www.w3.org/1999/xlink" x="0px" y="0px"
	 width="100%" viewBox="0 0 1024 1024" enable-background="new 0 0 1024 1024" xml:space="preserve">
<path fill="#ffffffff" opacity="1.000000" stroke="none" 
	d="
M458.357178,562.000122 
	C458.348877,589.488403 458.261932,616.477173 458.416809,643.464539 
	C458.439911,647.487915 457.311584,650.191406 454.182312,652.827515 
	C419.290466,682.220093 384.526001,711.763916 349.715363,741.252991 
	C348.740845,742.078552 347.933838,743.278198 345.364014,743.167358 
	C345.075562,614.768677 344.588989,486.393097 345.468750,357.595093 
	C348.579315,359.351532 374.753479,386.808777 377.412628,390.834229 
	C375.546204,391.335602 374.489838,390.166626 373.685760,389.140564 
	C367.921814,381.785065 360.305328,376.244843 354.246582,369.184326 
	C353.266693,368.042389 352.136749,366.830261 350.425079,367.501801 
	C348.763733,368.153656 348.575073,369.784241 348.608093,371.291901 
	C348.715332,376.193359 350.148834,380.149414 353.615479,384.228882 
	C376.293152,410.915497 401.694977,435.006348 425.574860,460.538269 
	C431.027863,466.368530 436.639771,472.051086 441.978485,477.996704 
	C443.930115,480.170258 446.009094,482.376099 448.887634,483.396057 
	C452.139618,478.795227 451.385223,473.139404 446.897064,468.562836 
	C441.779144,463.344116 437.511047,457.516541 433.939514,451.114777 
	C442.300812,457.868164 449.690399,465.596008 457.049683,473.355957 
	C458.760101,475.159454 458.288361,477.417603 458.291626,479.535217 
	C458.333923,506.856812 458.340942,534.178406 458.357178,562.000122 
z"/>
<path fill="#ffffffff" opacity="1.000000" stroke="none" 
	d="
M635.000000,619.839478 
	C650.277527,619.838806 665.055054,619.838806 679.478149,619.838806 
	C680.992676,622.693604 679.240540,624.014954 678.357483,625.451172 
	C654.726379,663.883362 631.028381,702.274475 607.430725,740.727234 
	C605.824219,743.344910 603.922058,744.267151 600.938293,744.264099 
	C542.980957,744.205566 485.023621,744.227722 427.066254,744.204712 
	C425.644775,744.204102 424.042572,744.660645 422.898254,743.311157 
	C422.332001,741.760742 423.364563,740.736450 424.040649,739.641663 
	C447.660095,701.396851 471.338379,663.188232 494.848297,624.876343 
	C497.139862,621.142090 499.727112,619.741150 504.095917,619.755615 
	C547.563538,619.899658 591.031860,619.841309 635.000000,619.839478 
z"/>
<path fill="#9632c9ff" opacity="1.000000" stroke="none" 
	d="
M345.054688,332.516754 
	C345.231354,315.681061 344.452545,299.265350 345.626556,282.988312 
	C348.088287,282.645233 349.116272,283.941223 350.271088,284.770386 
	C385.310760,309.928802 420.305420,335.150055 455.384125,360.253876 
	C457.967896,362.102966 458.391266,364.267059 458.379517,367.079498 
	C458.312744,383.072052 458.466553,399.066437 458.275269,415.056976 
	C458.227264,419.072845 459.553040,421.910858 462.340210,424.700958 
	C469.990021,432.358765 477.325317,440.329712 484.883820,448.080414 
	C487.241699,450.498260 488.279236,453.109924 488.271729,456.543243 
	C488.162842,506.353577 488.150299,556.164124 488.168213,605.974670 
	C488.169159,608.562622 487.719116,610.868591 486.309326,613.068787 
	C482.060333,619.700073 477.899445,626.387878 473.641418,633.153259 
	C471.265320,631.304321 471.920410,629.516541 471.929932,627.963806 
	C472.009430,614.995972 472.268280,602.039612 472.119446,589.058655 
	C471.693481,551.914246 471.950531,514.760864 472.126984,477.611877 
	C472.152100,472.325745 470.928833,468.266083 467.091187,464.266083 
	C427.539734,423.040833 388.204224,381.608398 348.779388,340.261536 
	C346.776550,338.161072 344.882141,336.123047 345.054688,332.516754 
z"/>
</svg>